HIERARCHY
ROOT Hips
{
    OFFSET 0.000000 0.000000 0.000000
    CHANNELS 6 Xposition Yposition Zposition Zrotation Xrotation Yrotation
    JOINT Spine
    {
        OFFSET -0.000000 14.517291 0.000000
        CHANNELS 3 Zrotation Xrotation Yrotation
        JOINT Spine1
        {
            OFFSET -0.000000 37.558300 0.000000
            CHANNELS 3 Zrotation Xrotation Yrotation
            JOINT Neck
            {
                OFFSET -0.000000 37.404057 3.400369
                CHANNELS 3 Zrotation Xrotation Yrotation
                JOINT Head
                {
                    OFFSET -0.000000 24.785618 -3.540803
                    CHANNELS 3 Zrotation Xrotation Yrotation
                    End Site
                    {
                        OFFSET -0.000000 35.408028 0.000000
                    }
                }
            }
            JOINT LeftShoulder
            {
                OFFSET 6.992933 33.973492 -0.192664
                CHANNELS 3 Zrotation Xrotation Yrotation
                JOINT LeftArm
                {
                    OFFSET 21.527611 0.000000 0.000000
                    CHANNELS 3 Zrotation Xrotation Yrotation
                    JOINT LeftForeArm
                    {
                        OFFSET 56.353916 0.000000 0.000000
                        CHANNELS 3 Zrotation Xrotation Yrotation
                        JOINT LeftHand
                        {
                            OFFSET 47.774071 0.000000 0.000000
                            CHANNELS 3 Zrotation Xrotation Yrotation
                            End Site
                            {
                                OFFSET 26.556021 0.000000 0.000000
                            }
                        }
                    }
                }
            }
            JOINT RightShoulder
            {
                OFFSET -7.065357 33.973492 -0.192664
                CHANNELS 3 Zrotation Xrotation Yrotation
                JOINT RightArm
                {
                    OFFSET -21.527611 0.000000 0.000000
                    CHANNELS 3 Zrotation Xrotation Yrotation
                    JOINT RightForeArm
                    {
                        OFFSET -56.353916 0.000000 0.000000
                        CHANNELS 3 Zrotation Xrotation Yrotation
                        JOINT RightHand
                        {
                            OFFSET -47.774071 0.000000 0.000000
                            CHANNELS 3 Zrotation Xrotation Yrotation
                            End Site
                            {
                                OFFSET -26.556021 0.000000 0.000000
                            }
                        }
                    }
                }
            }
        }
    }
    JOINT LeftUpLeg
    {
        OFFSET 17.704014 0.000000 0.000000
        CHANNELS 3 Zrotation Xrotation Yrotation
        JOINT LeftLeg
        {
            OFFSET -0.000000 -81.181816 0.000000
            CHANNELS 3 Zrotation Xrotation Yrotation
            JOINT LeftFoot
            {
                OFFSET -0.000000 -62.821102 0.000000
                CHANNELS 3 Zrotation Xrotation Yrotation
                JOINT LeftToeBase
                {
                    OFFSET -0.000000 -11.507608 26.556021
                    CHANNELS 3 Zrotation Xrotation Yrotation
                    End Site
                    {
                        OFFSET -0.000000 0.000000 7.081605
                    }
                }
            }
        }
    }
    JOINT RightUpLeg
    {
        OFFSET -17.704014 0.000000 0.000000
        CHANNELS 3 Zrotation Xrotation Yrotation
        JOINT RightLeg
        {
            OFFSET -0.000000 -81.181816 0.000000
            CHANNELS 3 Zrotation Xrotation Yrotation
            JOINT RightFoot
            {
                OFFSET -0.000000 -62.821102 0.000000
                CHANNELS 3 Zrotation Xrotation Yrotation
                JOINT RightToeBase
                {
                    OFFSET -0.000000 -11.507608 26.556021
                    CHANNELS 3 Zrotation Xrotation Yrotation
                    End Site
                    {
                        OFFSET -0.000000 0.000000 7.081605
                    }
                }
            }
        }
    }
}
MOTION
Frames:    9
Frame Time:    0.008333
-0.206992    156.344116    -24.621159    -0.399022    -2.790641    -36.097843    3.828505    0.141680    2.432128    -1.314741    1.045463    0.823781    14.082371    2.034736    13.275709    -7.445176    2.543047    11.088258    -1.439388    10.044293    -10.871554    -40.570740    12.984596    -35.769592    40.810528    -46.574680    -41.446640    -19.344280    -30.538282    -25.526962    -6.001572    5.042929    -0.339449    38.490559    8.461287    75.993637    13.622750    -13.993829    76.309326    21.973049    -19.218739    26.933311    16.598240    -16.927328    6.472113    -13.711488    21.345079    1.608974    -4.182895    -1.182257    33.864513    0.000000    0.000000    0.000000    -12.727518    -1.360355    -5.781725    6.407901    31.355587    -0.338984    3.272910    -23.368776    -14.544591    0.000000    0.000000    0.000000    
-0.212856    156.345825    -24.624273    -0.400636    -2.787168    -36.097363    3.827118    0.147098    2.426933    -1.313444    1.037081    0.822024    14.105832    2.033119    13.285514    -7.480778    2.556237    11.091797    -1.437504    10.048875    -10.864775    -40.557941    13.026481    -35.782379    40.872208    -46.601257    -41.397991    -19.357615    -30.563402    -25.529451    -5.992381    5.045701    -0.352844    38.502724    8.457348    75.945114    13.511084    -14.174274    76.133110    21.901859    -19.281322    26.999357    16.600214    -16.927711    6.483225    -13.699064    21.343773    1.605169    -4.174937    -1.171440    33.851170    0.000000    0.000000    0.000000    -12.720296    -1.361111    -5.787512    6.402790    31.350967    -0.345933    3.293082    -23.375170    -14.542398    0.000000    0.000000    0.000000    
-0.214682    156.348297    -24.627682    -0.401596    -2.785009    -36.094101    3.827452    0.158688    2.423424    -1.316576    1.019724    0.820830    14.107423    2.040278    13.290533    -7.479872    2.554200    11.097695    -1.429267    10.063107    -10.863337    -40.580303    12.984005    -35.792313    40.807819    -46.579144    -41.463425    -19.335230    -30.544811    -25.499138    -5.980081    5.046053    -0.367316    38.517345    8.448583    75.881271    13.411158    -14.294451    75.980637    21.872231    -19.297031    27.026302    16.602400    -16.930883    6.472911    -13.703319    21.340475    1.615228    -4.179444    -1.166248    33.859940    0.000000    0.000000    0.000000    -12.715445    -1.365766    -5.829868    6.370880    31.363806    -0.279330    3.294278    -23.365555    -14.547000    0.000000    0.000000    0.000000    
-0.226066    156.349594    -24.629683    -0.408064    -2.782469    -36.088207    3.823355    0.164093    2.414844    -1.302534    1.014321    0.817776    14.105310    2.038387    13.294415    -7.487482    2.561547    11.101367    -1.434435    10.068126    -10.854552    -40.570896    12.999744    -35.800327    40.821228    -46.582085    -41.453499    -19.332457    -30.545267    -25.514612    -5.978410    5.045119    -0.384110    38.530060    8.446181    75.827133    13.351834    -14.446319    75.840477    21.845720    -19.369423    27.088673    16.613401    -16.926832    6.465305    -13.718560    21.327955    1.638382    -4.157107    -1.147029    33.856327    0.000000    0.000000    0.000000    -12.702837    -1.360725    -5.833045    6.367901    31.364744    -0.297897    3.291622    -23.353243    -14.521894    0.000000    0.000000    0.000000    
-0.228824    156.350281    -24.636467    -0.403785    -2.772683    -36.081482    3.818716    0.162259    2.411616    -1.291124    1.008961    0.816523    14.096476    2.021138    13.294265    -7.487369    2.584644    11.101724    -1.438714    10.064844    -10.861330    -40.566116    13.010215    -35.798649    40.836529    -46.590500    -41.447689    -19.352636    -30.547352    -25.519485    -5.983687    5.039768    -0.406736    38.557907    8.426531    75.771019    13.276057    -14.551048    75.681664    21.843859    -19.374510    27.152672    16.617388    -16.939922    6.466915    -13.716262    21.328112    1.632991    -4.169002    -1.148244    33.857876    0.000000    0.000000    0.000000    -12.698142    -1.372548    -5.859131    6.355306    31.369043    -0.268317    3.288719    -23.351017    -14.538308    0.000000    0.000000    0.000000    
-0.236052    156.353790    -24.639465    -0.403666    -2.769907    -36.074627    3.823351    0.164740    2.403728    -1.305679    1.004535    0.814062    14.111918    2.020780    13.298478    -7.497652    2.587187    11.102985    -1.424683    10.066707    -10.860168    -40.565746    13.018564    -35.801060    40.858925    -46.586895    -41.434441    -19.369715    -30.533833    -25.532591    -5.969619    5.039864    -0.415454    38.583691    8.404375    75.708038    13.191335    -14.650110    75.527237    21.795572    -19.389057    27.167999    16.618330    -16.943687    6.465898    -13.714607    21.324308    1.633315    -4.176075    -1.140201    33.869419    0.000000    0.000000    0.000000    -12.692355    -1.369001    -5.850801    6.361239    31.358059    -0.284380    3.266436    -23.317381    -14.513127    0.000000    0.000000    0.000000    
-0.240732    156.355453    -24.640232    -0.398959    -2.764648    -36.070328    3.829683    0.164658    2.398578    -1.326529    0.997973    0.812455    14.133840    2.010720    13.306333    -7.505012    2.605287    11.107292    -1.412342    10.060962    -10.858874    -40.570618    13.022100    -35.799976    40.875797    -46.573620    -41.426788    -19.403183    -30.504997    -25.545370    -5.950844    5.034830    -0.422693    38.591328    8.391138    75.627098    13.121423    -14.769877    75.416763    21.914063    -19.390600    27.249470    16.616051    -16.948650    6.457735    -13.712339    21.314507    1.645366    -4.193967    -1.143044    33.868473    0.000000    0.000000    0.000000    -12.691277    -1.376146    -5.854827    6.360417    31.362875    -0.278188    3.316284    -23.347004    -14.539677    0.000000    0.000000    0.000000    
-0.247531    156.355133    -24.644344    -0.396910    -2.758976    -36.067913    3.830753    0.162776    2.398259    -1.329220    0.996706    0.812284    14.146822    2.008974    13.303447    -7.528501    2.610697    11.099917    -1.413295    10.052200    -10.867667    -40.562622    13.041289    -35.795105    40.895557    -46.585976    -41.412003    -19.374451    -30.527454    -25.525024    -5.945358    5.038749    -0.430449    38.605076    8.369420    75.554359    13.033071    -14.861910    75.321609    21.909567    -19.395475    27.268555    16.621050    -16.953646    6.446836    -13.715593    21.314270    1.636435    -4.188503    -1.142438    33.878487    0.000000    0.000000    0.000000    -12.687103    -1.383795    -5.873703    6.352889    31.371683    -0.257771    3.302566    -23.344374    -14.543462    0.000000    0.000000    0.000000    
-0.254715    156.354782    -24.647959    -0.393963    -2.757082    -36.066818    3.831096    0.162697    2.390836    -1.328303    0.998497    0.809795    14.118185    2.014053    13.304417    -7.505910    2.594109    11.106949    -1.424953    10.042485    -10.852640    -40.535706    13.076207    -35.800518    40.947060    -46.593212    -41.355602    -19.391539    -30.533581    -25.532684    -5.952528    5.052217    -0.435146    38.614609    8.347342    75.508949    12.893294    -14.964099    75.198463    21.967108    -19.355984    27.272316    16.623556    -16.954685    6.453849    -13.713891    21.311087    1.637838    -4.199640    -1.141338    33.869598    0.000000    0.000000    0.000000    -12.687060    -1.390550    -5.873550    6.363302    31.377968    -0.287389    3.264743    -23.320015    -14.514809    0.000000    0.000000    0.000000    
